<svg xmlns="http://www.w3.org/2000/svg" version="1.1" xmlns:xlink="http://www.w3.org/1999/xlink" xmlns:svgjs="http://svgjs.dev/svgjs" width="1440" height="560" preserveAspectRatio="none" viewBox="0 0 1440 560">
    <g mask="url(&quot;#SvgjsMask1000&quot;)" fill="none">
        <rect width="1440" height="560" x="0" y="0" fill="#0e2a47"></rect>
        <path d="M0,573.237C112.627,572.739,238.062,576.812,323.629,503.577C407.5,431.794,393.88,301.187,436.731,199.448C477.869,101.775,559.026,23.395,570.26,-81.991C583.289,-204.21,584.982,-344.255,504.602,-437.24C424.214,-530.235,283.915,-534.052,162.56,-553.627C54.222,-571.102,-59.125,-587.96,-159.856,-544.421C-255.775,-502.962,-304.677,-402.262,-372.181,-322.497C-438.779,-243.802,-532.732,-180.574,-553.271,-79.548C-574.158,23.189,-520.533,122.657,-482.547,220.372C-442.316,323.862,-415.1,440.904,-325.472,506.445C-234.225,573.17,-113.04,573.737,0,573.237" fill="#0b2239"></path>
        <path d="M1440 1227.512C1566.503 1228.057 1591.917 1030.144 1695.186 957.077 1791.202 889.1410000000001 1967.862 930.309 2013.3490000000002 821.8399999999999 2059.312 712.235 1917.769 610.735 1888.759 495.478 1863.996 397.094 1910.42 285.018 1856.588 199.02499999999998 1800.356 109.197 1693.035 71.113 1596.18 28.100000000000023 1486.171-20.754999999999995 1373.743-91.12900000000002 1255.646-67.85400000000004 1135.07-44.09100000000001 1028.9569999999999 44.54899999999998 968.8399999999999 151.73700000000002 912.616 251.985 958.0799999999999 374.606 943.5450000000001 488.621 929.328 600.135 832.546 713.994 884.447 813.713 936.778 914.26 1095.317 887.177 1186.222 954.886 1287.85 1030.583 1313.28 1226.967 1440 1227.512" fill="#113255"></path>
    </g>
    <defs>
        <mask id="SvgjsMask1000">
            <rect width="1440" height="560" fill="#ffffff"></rect>
        </mask>
    </defs>
</svg>